<?xml version="1.0" standalone="no"?>
<!DOCTYPE svg PUBLIC "-//W3C//DTD SVG 20010904//EN"
 "http://www.w3.org/TR/2001/REC-SVG-20010904/DTD/svg10.dtd">
<svg version="1.0" xmlns="http://www.w3.org/2000/svg"
 width="192.000000pt" height="192.000000pt" viewBox="0 0 192.000000 192.000000"
 preserveAspectRatio="xMidYMid meet">
<metadata>
Created by potrace 1.11, written by Peter Selinger 2001-2013
</metadata>
<g transform="translate(0.000000,192.000000) scale(0.100000,-0.100000)"
fill="#000000" stroke="none">
<path d="M391 1829 c-34 -13 -60 -46 -67 -84 -8 -47 -10 -1584 -2 -1578 5 2 8
-2 8 -11 0 -19 59 -78 71 -70 5 3 9 2 9 -3 0 -4 48 -7 107 -6 69 1 113 -3 122
-10 12 -9 13 -9 8 0 -10 16 211 15 232 -1 11 -8 13 -8 8 0 -5 8 71 12 283 12
216 0 288 -3 283 -12 -4 -6 1 -5 10 3 10 8 20 11 24 8 8 -8 64 21 84 44 9 10
19 15 23 12 4 -4 4 0 0 10 -3 9 -2 17 2 17 5 0 8 355 7 789 -1 714 -3 792 -18
824 -32 68 -20 67 -627 66 -322 0 -553 -4 -567 -10z"/>
<path d="M1545 80 c-3 -6 1 -7 9 -4 18 7 21 14 7 14 -6 0 -13 -4 -16 -10z"/>
<path d="M495 59 c-3 -4 2 -6 10 -5 21 3 28 13 10 13 -9 0 -18 -4 -20 -8z"/>
<path d="M975 59 c-3 -4 2 -6 10 -5 21 3 28 13 10 13 -9 0 -18 -4 -20 -8z"/>
<path d="M1390 66 c0 -2 7 -7 16 -10 8 -3 12 -2 9 4 -6 10 -25 14 -25 6z"/>
</g>
</svg>
